# xmcd
#
# Track frame offsets: 
#        150
#        16643
#        35142
#        48132
#        61082
#        83659
#        104521
#        120166
#        135649
#        150795
#        171155
#        191918
#        204950
#        221895
#        237290
#        257894
#        276845
#        292083
#        309078
#        324048
#
# Disc length: 4521 seconds
#
# Revision: 0
# Processed by: cddbd v1.5.2PL0 Copyright (c) Steve Scherf et al.
# Submitted via: ExactAudioCopy v1.3
#
DISCID=0a11a714
DTITLE=Jose Luis Perales - De cerca 20 canciones esenciales
DYEAR=2014
DGENRE=Ballad
TTITLE0=Un velero llamado libertad
TTITLE1=Y como es el
TTITLE2=Celos de mi guitarra
TTITLE3=Cosas de doña Asuncion
TTITLE4=Cancion de cuna para un gitano
TTITLE5=Y te vas
TTITLE6=Cancion para un poeta
TTITLE7=La tabaquera
TTITLE8=Por ti
TTITLE9=Podre olvidar
TTITLE10=Quisiera decir tu nombre
TTITLE11=Pequeño gorrion
TTITLE12=Soledades
TTITLE13=Pequeño marinero
TTITLE14=Me llamas
TTITLE15=El amor
TTITLE16=Isabel
TTITLE17=Te quiero
TTITLE18=Balada para una despedida
TTITLE19=Ella y el
EXTD=
EXTT0=
EXTT1=
EXTT2=
EXTT3=
EXTT4=
EXTT5=
EXTT6=
EXTT7=
EXTT8=
EXTT9=
EXTT10=
EXTT11=
EXTT12=
EXTT13=
EXTT14=
EXTT15=
EXTT16=
EXTT17=
EXTT18=
EXTT19=
PLAYORDER=
